<svg xmlns="http://www.w3.org/2000/svg" viewBox="0 0 600 340">
  <defs>
    <linearGradient id="bg4" x1="0" y1="0" x2="1" y2="1">
      <stop offset="0" stop-color="#0f171f"/>
      <stop offset="1" stop-color="#111c2b"/>
    </linearGradient>
    <radialGradient id="glow4" cx="0.8" cy="0.2" r="0.6">
      <stop offset="0" stop-color="#38bdf8" stop-opacity="0.25"/>
      <stop offset="1" stop-color="#38bdf8" stop-opacity="0"/>
    </radialGradient>
  </defs>
  <rect width="600" height="340" fill="url(#bg4)"/>
  <rect width="600" height="340" fill="url(#glow4)"/>
  <circle cx="40" cy="34" r="6" fill="#ef4444" opacity="0.7"/>
  <circle cx="60" cy="34" r="6" fill="#f59e0b" opacity="0.7"/>
  <circle cx="80" cy="34" r="6" fill="#22c55e" opacity="0.7"/>
  <rect x="150" y="24" width="220" height="20" rx="10" fill="#ffffff" opacity="0.06"/>

  <!-- Long URL -->
  <rect x="60" y="90" width="300" height="34" rx="17" fill="#182535" stroke="#28405a"/>
  <text x="78" y="112" fill="#7dabca" font-family="monospace" font-size="12">yourdomain.com/blog/posts/2026/07/...</text>

  <!-- Arrow -->
  <path d="M210 140 L210 170" stroke="#38bdf8" stroke-width="3" fill="none" stroke-linecap="round"/>
  <path d="M198 158 L210 172 L222 158" stroke="#38bdf8" stroke-width="3" fill="none" stroke-linecap="round" stroke-linejoin="round"/>

  <!-- Short URL -->
  <rect x="130" y="182" width="160" height="38" rx="19" fill="#38bdf8"/>
  <text x="152" y="207" fill="#0b1622" font-family="monospace" font-size="14" font-weight="bold">short.ly/8fA2xQ</text>

  <!-- link icon -->
  <g transform="translate(420,95)">
    <circle r="34" fill="#38bdf8" opacity="0.12"/>
    <path d="M-10 0 a10 10 0 0 1 10 -10 h6 a10 10 0 0 1 0 20 h-4" stroke="#38bdf8" stroke-width="4" fill="none" stroke-linecap="round"/>
    <path d="M10 0 a10 10 0 0 1 -10 10 h-6 a10 10 0 0 1 0 -20 h4" stroke="#38bdf8" stroke-width="4" fill="none" stroke-linecap="round"/>
  </g>

  <!-- click analytics line chart -->
  <rect x="60" y="240" width="480" height="70" rx="10" fill="#0f0f16" stroke="#213347"/>
  <text x="76" y="258" fill="#94a3b8" font-family="Arial, sans-serif" font-size="10">Click analytics, last 7 days</text>
  <polyline points="80,298 130,285 180,290 230,270 280,278 330,255 380,262 430,240 480,248 520,225"
    fill="none" stroke="#38bdf8" stroke-width="3" stroke-linecap="round" stroke-linejoin="round"/>
  <circle cx="520" cy="225" r="4" fill="#38bdf8"/>
  <text x="490" y="255" fill="#38bdf8" font-family="Arial, sans-serif" font-size="12" font-weight="bold">+312</text>
</svg>
