<svg xmlns="http://www.w3.org/2000/svg" viewBox="0 0 600 340">
  <defs>
    <linearGradient id="bg1" x1="0" y1="0" x2="1" y2="1">
      <stop offset="0" stop-color="#15121d"/>
      <stop offset="1" stop-color="#1c1424"/>
    </linearGradient>
    <radialGradient id="glow1" cx="0.8" cy="0.15" r="0.6">
      <stop offset="0" stop-color="#ec4899" stop-opacity="0.25"/>
      <stop offset="1" stop-color="#ec4899" stop-opacity="0"/>
    </radialGradient>
  </defs>
  <rect width="600" height="340" fill="url(#bg1)"/>
  <rect width="600" height="340" fill="url(#glow1)"/>
  <circle cx="40" cy="34" r="6" fill="#ef4444" opacity="0.7"/>
  <circle cx="60" cy="34" r="6" fill="#f59e0b" opacity="0.7"/>
  <circle cx="80" cy="34" r="6" fill="#22c55e" opacity="0.7"/>
  <rect x="150" y="24" width="220" height="20" rx="10" fill="#ffffff" opacity="0.06"/>

  <!-- Kanban columns -->
  <g>
    <rect x="40" y="70" width="150" height="230" rx="10" fill="#ffffff" opacity="0.04"/>
    <text x="58" y="95" fill="#ec4899" font-family="Arial, sans-serif" font-size="13" font-weight="bold">TO DO</text>
    <rect x="55" y="108" width="120" height="34" rx="6" fill="#22222e"/>
    <rect x="65" y="118" width="70" height="6" rx="3" fill="#64748b"/>
    <rect x="65" y="130" width="45" height="5" rx="2.5" fill="#3b3b48"/>
    <rect x="55" y="150" width="120" height="34" rx="6" fill="#22222e"/>
    <rect x="65" y="160" width="80" height="6" rx="3" fill="#64748b"/>
    <rect x="65" y="172" width="40" height="5" rx="2.5" fill="#3b3b48"/>
  </g>
  <g>
    <rect x="210" y="70" width="150" height="230" rx="10" fill="#ffffff" opacity="0.06"/>
    <text x="228" y="95" fill="#3b82f6" font-family="Arial, sans-serif" font-size="13" font-weight="bold">IN PROGRESS</text>
    <rect x="225" y="108" width="120" height="34" rx="6" fill="#22222e"/>
    <rect x="235" y="118" width="90" height="6" rx="3" fill="#94a3b8"/>
    <rect x="235" y="130" width="55" height="5" rx="2.5" fill="#3b3b48"/>
    <rect x="225" y="150" width="120" height="60" rx="6" fill="#22222e"/>
    <rect x="235" y="160" width="70" height="6" rx="3" fill="#94a3b8"/>
    <rect x="235" y="172" width="100" height="5" rx="2.5" fill="#3b3b48"/>
    <rect x="235" y="184" width="60" height="16" rx="8" fill="#3b82f6" opacity="0.25"/>
    <text x="243" y="195" fill="#93c5fd" font-family="Arial, sans-serif" font-size="9">Due Fri</text>
  </g>
  <g>
    <rect x="380" y="70" width="150" height="230" rx="10" fill="#ffffff" opacity="0.04"/>
    <text x="398" y="95" fill="#22c55e" font-family="Arial, sans-serif" font-size="13" font-weight="bold">DONE</text>
    <rect x="395" y="108" width="120" height="34" rx="6" fill="#22222e"/>
    <path d="M405 125 l5 5 l9 -11" stroke="#22c55e" stroke-width="2.5" fill="none" stroke-linecap="round" stroke-linejoin="round"/>
    <rect x="425" y="119" width="75" height="6" rx="3" fill="#4b5f55" opacity="0.7"/>
    <rect x="395" y="150" width="120" height="34" rx="6" fill="#22222e"/>
    <path d="M405 167 l5 5 l9 -11" stroke="#22c55e" stroke-width="2.5" fill="none" stroke-linecap="round" stroke-linejoin="round"/>
    <rect x="425" y="161" width="60" height="6" rx="3" fill="#4b5f55" opacity="0.7"/>
  </g>

  <rect x="380" y="248" width="150" height="52" rx="10" fill="#0f0f16" stroke="#2a2a35"/>
  <text x="394" y="266" fill="#94a3b8" font-family="Arial, sans-serif" font-size="10">Completed this week</text>
  <text x="394" y="288" fill="#ffffff" font-family="Arial, sans-serif" font-size="18" font-weight="bold">32 tasks</text>
</svg>
