<svg xmlns="http://www.w3.org/2000/svg" viewBox="0 0 600 340">
  <defs>
    <linearGradient id="bg6" x1="0" y1="0" x2="1" y2="1">
      <stop offset="0" stop-color="#1c1420"/>
      <stop offset="1" stop-color="#241426"/>
    </linearGradient>
    <radialGradient id="glow6" cx="0.85" cy="0.15" r="0.65">
      <stop offset="0" stop-color="#f472b6" stop-opacity="0.25"/>
      <stop offset="1" stop-color="#f472b6" stop-opacity="0"/>
    </radialGradient>
  </defs>
  <rect width="600" height="340" fill="url(#bg6)"/>
  <rect width="600" height="340" fill="url(#glow6)"/>
  <circle cx="40" cy="34" r="6" fill="#ef4444" opacity="0.7"/>
  <circle cx="60" cy="34" r="6" fill="#f59e0b" opacity="0.7"/>
  <circle cx="80" cy="34" r="6" fill="#22c55e" opacity="0.7"/>
  <rect x="150" y="24" width="220" height="20" rx="10" fill="#ffffff" opacity="0.06"/>

  <!-- product grid -->
  <g transform="translate(60,70)">
    <rect x="0" y="0" width="90" height="90" rx="10" fill="#2a2032"/>
    <rect x="12" y="12" width="66" height="46" rx="6" fill="#f472b6" opacity="0.3"/>
    <rect x="12" y="64" width="50" height="7" rx="3.5" fill="#94a3b8"/>
    <rect x="12" y="76" width="30" height="6" rx="3" fill="#ec4899"/>

    <rect x="102" y="0" width="90" height="90" rx="10" fill="#2a2032"/>
    <rect x="114" y="12" width="66" height="46" rx="6" fill="#3b82f6" opacity="0.3"/>
    <rect x="114" y="64" width="50" height="7" rx="3.5" fill="#94a3b8"/>
    <rect x="114" y="76" width="30" height="6" rx="3" fill="#ec4899"/>

    <rect x="0" y="102" width="90" height="90" rx="10" fill="#2a2032"/>
    <rect x="12" y="114" width="66" height="46" rx="6" fill="#f59e0b" opacity="0.3"/>
    <rect x="12" y="166" width="50" height="7" rx="3.5" fill="#94a3b8"/>
    <rect x="12" y="178" width="30" height="6" rx="3" fill="#ec4899"/>

    <rect x="102" y="102" width="90" height="90" rx="10" fill="#2a2032"/>
    <rect x="114" y="114" width="66" height="46" rx="6" fill="#22c55e" opacity="0.3"/>
    <rect x="114" y="166" width="50" height="7" rx="3.5" fill="#94a3b8"/>
    <rect x="114" y="178" width="30" height="6" rx="3" fill="#ec4899"/>
  </g>

  <!-- cart icon -->
  <g transform="translate(300,105)">
    <circle r="40" fill="#ec4899" opacity="0.12"/>
    <path d="M-16 -14 h6 l6 32 h20 l7 -22 h-30" stroke="#f472b6" stroke-width="3.5" fill="none" stroke-linecap="round" stroke-linejoin="round"/>
    <circle cx="-4" cy="20" r="4" fill="#f472b6"/>
    <circle cx="16" cy="20" r="4" fill="#f472b6"/>
  </g>

  <!-- revenue bar chart -->
  <rect x="390" y="70" width="150" height="220" rx="12" fill="#0f0f16" stroke="#3a2c3f"/>
  <text x="404" y="94" fill="#94a3b8" font-family="Arial, sans-serif" font-size="10">Revenue this week</text>
  <text x="404" y="118" fill="#ffffff" font-family="Arial, sans-serif" font-size="18" font-weight="bold">₹1.8L</text>
  <text x="404" y="134" fill="#22c55e" font-family="Arial, sans-serif" font-size="10">▲ 18% vs last week</text>
  <g transform="translate(404,150)">
    <rect x="0" y="60" width="14" height="35" rx="3" fill="#f472b6" opacity="0.4"/>
    <rect x="20" y="45" width="14" height="50" rx="3" fill="#f472b6" opacity="0.55"/>
    <rect x="40" y="50" width="14" height="45" rx="3" fill="#f472b6" opacity="0.5"/>
    <rect x="60" y="25" width="14" height="70" rx="3" fill="#f472b6" opacity="0.75"/>
    <rect x="80" y="15" width="14" height="80" rx="3" fill="#f472b6" opacity="0.9"/>
    <rect x="100" y="5" width="14" height="90" rx="3" fill="#f472b6"/>
  </g>
</svg>
